<svg width="63" height="74" viewBox="0 0 63 74" fill="none" xmlns="http://www.w3.org/2000/svg">
<path d="M56.1762 17.0694L45.4339 6.3209C43.4338 4.311 41.0552 2.71751 38.4354 1.63257C35.8157 0.547633 33.0069 -0.00722695 30.1714 7.10667e-05H16.2502C12.1629 0.00496696 8.24447 1.63079 5.35434 4.52092C2.46422 7.41104 0.838392 11.3295 0.833496 15.4167V58.5834C0.838392 62.6707 2.46422 66.5891 5.35434 69.4792C8.24447 72.3694 12.1629 73.9952 16.2502 74.0001H47.0835C51.1707 73.9952 55.0892 72.3694 57.9793 69.4792C60.8694 66.5891 62.4953 62.6707 62.5002 58.5834V32.3288C62.5078 29.4935 61.9528 26.6848 60.8673 24.0654C59.7818 21.4461 58.1873 19.0681 56.1762 17.0694ZM51.8164 21.4292C52.7579 22.3979 53.5676 23.4864 54.2245 24.6667H40.9168C40.0991 24.6667 39.3148 24.3419 38.7366 23.7636C38.1583 23.1854 37.8335 22.4012 37.8335 21.5834V8.27574C39.0142 8.93225 40.1037 9.74082 41.0741 10.6807L51.8164 21.4292ZM56.3335 58.5834C56.3335 61.0367 55.3589 63.3894 53.6242 65.1241C51.8895 66.8589 49.5368 67.8334 47.0835 67.8334H16.2502C13.7969 67.8334 11.4441 66.8589 9.70943 65.1241C7.97471 63.3894 7.00016 61.0367 7.00016 58.5834V15.4167C7.00016 12.9635 7.97471 10.6107 9.70943 8.876C11.4441 7.14129 13.7969 6.16674 16.2502 6.16674H30.1714C30.6771 6.16674 31.1673 6.2654 31.6668 6.31165V21.5834C31.6668 24.0367 32.6414 26.3894 34.3761 28.1241C36.1108 29.8589 38.4636 30.8334 40.9168 30.8334H56.1886C56.2348 31.3329 56.3335 31.8201 56.3335 32.3288V58.5834Z" fill="white"/>
</svg>
