<svg width="75" height="74" viewBox="0 0 75 74" fill="none" xmlns="http://www.w3.org/2000/svg">
<g clip-path="url(#clip0_2073_1066)">
<path d="M21.7497 74.0001C25.1554 74.0001 27.9163 71.2392 27.9163 67.8334C27.9163 64.4277 25.1554 61.6667 21.7497 61.6667C18.3439 61.6667 15.583 64.4277 15.583 67.8334C15.583 71.2392 18.3439 74.0001 21.7497 74.0001Z" fill="white"/>
<path d="M52.5832 74.0001C55.9889 74.0001 58.7498 71.2392 58.7498 67.8334C58.7498 64.4277 55.9889 61.6667 52.5832 61.6667C49.1774 61.6667 46.4165 64.4277 46.4165 67.8334C46.4165 71.2392 49.1774 74.0001 52.5832 74.0001Z" fill="white"/>
<path d="M71.0833 9.25H64.9167V3.08333C64.9167 2.26558 64.5918 1.48132 64.0136 0.903087C63.4353 0.32485 62.6511 0 61.8333 0C61.0156 0 60.2313 0.32485 59.6531 0.903087C59.0748 1.48132 58.75 2.26558 58.75 3.08333V9.25H52.5833C51.7656 9.25 50.9813 9.57485 50.4031 10.1531C49.8248 10.7313 49.5 11.5156 49.5 12.3333C49.5 13.1511 49.8248 13.9353 50.4031 14.5136C50.9813 15.0918 51.7656 15.4167 52.5833 15.4167H58.75V21.5833C58.75 22.4011 59.0748 23.1853 59.6531 23.7636C60.2313 24.3418 61.0156 24.6667 61.8333 24.6667C62.6511 24.6667 63.4353 24.3418 64.0136 23.7636C64.5918 23.1853 64.9167 22.4011 64.9167 21.5833V15.4167H71.0833C71.9011 15.4167 72.6853 15.0918 73.2636 14.5136C73.8418 13.9353 74.1667 13.1511 74.1667 12.3333C74.1667 11.5156 73.8418 10.7313 73.2636 10.1531C72.6853 9.57485 71.9011 9.25 71.0833 9.25Z" fill="white"/>
<path d="M67.2938 29.9885C66.8951 29.9139 66.4856 29.9192 66.089 30.004C65.6923 30.0889 65.3165 30.2516 64.9833 30.4827C64.65 30.7139 64.3659 31.0089 64.1475 31.3507C63.9291 31.6924 63.7807 32.0741 63.7109 32.4737C63.3264 34.6078 62.2043 36.539 60.5406 37.9299C58.8769 39.3208 56.7774 40.083 54.6089 40.0833H16.872L13.9737 15.4167H40.2498C41.0676 15.4167 41.8518 15.0918 42.4301 14.5136C43.0083 13.9353 43.3332 13.1511 43.3332 12.3333C43.3332 11.5156 43.0083 10.7313 42.4301 10.1531C41.8518 9.57485 41.0676 9.25 40.2498 9.25H13.246L13.1165 8.16467C12.8508 5.91568 11.7693 3.84231 10.0769 2.33749C8.38456 0.832667 6.19897 0.000964579 3.93434 0L3.24984 0C2.43209 0 1.64783 0.32485 1.06959 0.903087C0.491354 1.48132 0.166504 2.26558 0.166504 3.08333C0.166504 3.90108 0.491354 4.68534 1.06959 5.26358C1.64783 5.84182 2.43209 6.16667 3.24984 6.16667H3.93434C4.68955 6.16677 5.41846 6.44403 5.98282 6.94587C6.54718 7.44771 6.90773 8.13923 6.99609 8.88925L11.2388 44.9643C11.6792 48.716 13.4818 52.1755 16.3044 54.686C19.127 57.1966 22.7731 58.5834 26.5506 58.5833H58.7498C59.5676 58.5833 60.3518 58.2585 60.9301 57.6803C61.5083 57.102 61.8332 56.3178 61.8332 55.5C61.8332 54.6823 61.5083 53.898 60.9301 53.3198C60.3518 52.7415 59.5676 52.4167 58.7498 52.4167H26.5506C24.6374 52.417 22.7712 51.8242 21.2091 50.7198C19.6469 49.6154 18.4656 48.0537 17.8278 46.25H54.6089C58.223 46.2504 61.7224 44.981 64.4958 42.6635C67.2691 40.3461 69.1401 37.128 69.782 33.5713C69.854 33.1727 69.8468 32.7638 69.7607 32.3679C69.6746 31.9721 69.5114 31.597 69.2803 31.2643C69.0492 30.9316 68.7548 30.6476 68.414 30.4287C68.0731 30.2098 67.6925 30.0602 67.2938 29.9885Z" fill="white"/>
</g>
<defs>
<clipPath id="clip0_2073_1066">
<rect width="74" height="74" fill="white" transform="translate(0.166504)"/>
</clipPath>
</defs>
</svg>
