<svg width="75" height="74" viewBox="0 0 75 74" fill="none" xmlns="http://www.w3.org/2000/svg">
<g clip-path="url(#clip0_2073_1091)">
<path d="M58.9163 6.16675H15.7497C7.23967 6.16675 0.333008 13.0734 0.333008 21.5834V52.4168C0.333008 60.9268 7.23967 67.8334 15.7497 67.8334H58.9163C67.4263 67.8334 74.333 60.9268 74.333 52.4168V21.5834C74.333 13.0734 67.4263 6.16675 58.9163 6.16675ZM15.7497 12.3334H58.9163C64.0038 12.3334 68.1663 16.4959 68.1663 21.5834H6.49967C6.49967 16.4959 10.6622 12.3334 15.7497 12.3334ZM58.9163 61.6668H15.7497C10.6622 61.6668 6.49967 57.5042 6.49967 52.4168V27.7501H68.1663V52.4168C68.1663 57.5042 64.0038 61.6668 58.9163 61.6668ZM31.1663 37.0001C31.1663 38.6959 29.7788 40.0834 28.083 40.0834H24.9997V52.4168C24.9997 54.1126 23.6122 55.5001 21.9163 55.5001C20.2205 55.5001 18.833 54.1126 18.833 52.4168V40.0834H15.7497C14.0538 40.0834 12.6663 38.6959 12.6663 37.0001C12.6663 35.3042 14.0538 33.9167 15.7497 33.9167H28.083C29.7788 33.9167 31.1663 35.3042 31.1663 37.0001ZM61.9997 37.0001C61.9997 38.6959 60.6122 40.0834 58.9163 40.0834H40.4163C38.7205 40.0834 37.333 38.6959 37.333 37.0001C37.333 35.3042 38.7205 33.9167 40.4163 33.9167H58.9163C60.6122 33.9167 61.9997 35.3042 61.9997 37.0001ZM61.9997 49.3334C61.9997 51.0293 60.6122 52.4168 58.9163 52.4168H40.4163C38.7205 52.4168 37.333 51.0293 37.333 49.3334C37.333 47.6376 38.7205 46.2501 40.4163 46.2501H58.9163C60.6122 46.2501 61.9997 47.6376 61.9997 49.3334Z" fill="white"/>
</g>
<defs>
<clipPath id="clip0_2073_1091">
<rect width="74" height="74" fill="white" transform="translate(0.333008)"/>
</clipPath>
</defs>
</svg>
