<svg width="34" height="35" viewBox="0 0 34 35" fill="none" xmlns="http://www.w3.org/2000/svg">
<g clip-path="url(#clip0_2025_366)">
<path d="M10.7163 16.7421C12.6292 16.7421 14.1852 15.1861 14.1852 13.2733C14.1852 11.3604 12.6292 9.8044 10.7163 9.8044C8.80351 9.8044 7.24747 11.3604 7.24747 13.2733C7.24747 15.1861 8.80351 16.7421 10.7163 16.7421ZM10.7163 11.7866C11.536 11.7866 12.203 12.4536 12.203 13.2733C12.203 14.0929 11.536 14.7599 10.7163 14.7599C9.8967 14.7599 9.22969 14.0929 9.22969 13.2733C9.22969 12.4536 9.8967 11.7866 10.7163 11.7866ZM14.0177 20.0267C13.7115 20.4816 13.097 20.6035 12.6421 20.2982C12.0722 19.9157 11.4062 19.7145 10.7163 19.7145C8.94524 19.7145 7.46353 21.0396 7.26828 22.7968C7.21179 23.3033 6.78264 23.6789 6.28411 23.6789C6.24843 23.6789 6.21176 23.6769 6.1741 23.673C5.62998 23.6125 5.2385 23.1219 5.29796 22.5788C5.60421 19.8166 7.93332 17.7323 10.7163 17.7323C11.8006 17.7323 12.8472 18.0494 13.7462 18.651C14.2011 18.9563 14.323 19.5718 14.0177 20.0267ZM20.6274 12.7777C22.5403 12.7777 24.0963 11.2217 24.0963 9.30884C24.0963 7.396 22.5403 5.83997 20.6274 5.83997C18.7146 5.83997 17.1585 7.396 17.1585 9.30884C17.1585 11.2217 18.7146 12.7777 20.6274 12.7777ZM20.6274 7.82218C21.4471 7.82218 22.1141 8.4892 22.1141 9.30884C22.1141 10.1285 21.4471 10.7955 20.6274 10.7955C19.8078 10.7955 19.1408 10.1285 19.1408 9.30884C19.1408 8.4892 19.8078 7.82218 20.6274 7.82218ZM22.1141 15.751C18.2894 15.751 15.1763 18.8641 15.1763 22.6888C15.1763 26.5135 18.2894 29.6265 22.1141 29.6265C25.9388 29.6265 29.0518 26.5135 29.0518 22.6888C29.0518 18.8641 25.9388 15.751 22.1141 15.751ZM22.1141 27.6443C19.3816 27.6443 17.1585 25.4213 17.1585 22.6888C17.1585 19.9563 19.3816 17.7333 22.1141 17.7333C24.8466 17.7333 27.0696 19.9563 27.0696 22.6888C27.0696 25.4213 24.8466 27.6443 22.1141 27.6443ZM25.3074 21.4876C25.686 21.882 25.6732 22.5094 25.2787 22.889L23.0854 24.9941C22.6374 25.4361 22.0427 25.6591 21.4471 25.6591C20.8514 25.6591 20.2548 25.4361 19.7989 24.9911L18.6769 23.892C18.2854 23.5084 18.2805 22.8811 18.663 22.4906C19.0456 22.0991 19.673 22.0931 20.0645 22.4767L21.1854 23.5748C21.3281 23.7156 21.561 23.7126 21.7028 23.5729L23.906 21.4578C24.2995 21.0802 24.9278 21.0911 25.3074 21.4866V21.4876Z" fill="white" fill-opacity="0.85"/>
</g>
<defs>
<clipPath id="clip0_2025_366">
<rect width="23.7866" height="23.7866" fill="white" transform="translate(5.26562 5.83997)"/>
</clipPath>
</defs>
</svg>
