<svg width="25" height="25" viewBox="0 0 25 25" fill="none" xmlns="http://www.w3.org/2000/svg">
<g clip-path="url(#clip0_2025_355)">
<path d="M23.6173 22.6443H5.77732C4.98874 22.6443 4.23247 22.3311 3.67486 21.7735C3.11725 21.2159 2.80399 20.4596 2.80399 19.671V1.83107C2.80399 1.56822 2.69957 1.31612 2.5137 1.13025C2.32784 0.944386 2.07574 0.839966 1.81288 0.839966C1.55003 0.839966 1.29793 0.944386 1.11207 1.13025C0.926197 1.31612 0.821777 1.56822 0.821777 1.83107L0.821777 19.671C0.823351 20.9848 1.34596 22.2444 2.27496 23.1734C3.20396 24.1024 4.46351 24.625 5.77732 24.6265H23.6173C23.8801 24.6265 24.1322 24.5221 24.3181 24.3363C24.5039 24.1504 24.6084 23.8983 24.6084 23.6354C24.6084 23.3726 24.5039 23.1205 24.3181 22.9346C24.1322 22.7488 23.8801 22.6443 23.6173 22.6443Z" fill="white" fill-opacity="0.85"/>
<path d="M6.76845 20.662C7.03131 20.662 7.2834 20.5576 7.46927 20.3717C7.65514 20.1859 7.75956 19.9338 7.75956 19.6709V12.7332C7.75956 12.4703 7.65514 12.2182 7.46927 12.0324C7.2834 11.8465 7.03131 11.7421 6.76845 11.7421C6.50559 11.7421 6.2535 11.8465 6.06763 12.0324C5.88176 12.2182 5.77734 12.4703 5.77734 12.7332V19.6709C5.77734 19.9338 5.88176 20.1859 6.06763 20.3717C6.2535 20.5576 6.50559 20.662 6.76845 20.662Z" fill="white" fill-opacity="0.85"/>
<path d="M10.7329 10.751V19.671C10.7329 19.9338 10.8373 20.1859 11.0232 20.3718C11.2091 20.5577 11.4612 20.6621 11.724 20.6621C11.9869 20.6621 12.239 20.5577 12.4248 20.3718C12.6107 20.1859 12.7151 19.9338 12.7151 19.671V10.751C12.7151 10.4881 12.6107 10.236 12.4248 10.0502C12.239 9.86431 11.9869 9.75989 11.724 9.75989C11.4612 9.75989 11.2091 9.86431 11.0232 10.0502C10.8373 10.236 10.7329 10.4881 10.7329 10.751Z" fill="white" fill-opacity="0.85"/>
<path d="M15.6885 13.7244V19.671C15.6885 19.9339 15.7929 20.186 15.9788 20.3718C16.1646 20.5577 16.4167 20.6621 16.6796 20.6621C16.9424 20.6621 17.1945 20.5577 17.3804 20.3718C17.5663 20.186 17.6707 19.9339 17.6707 19.671V13.7244C17.6707 13.4615 17.5663 13.2094 17.3804 13.0236C17.1945 12.8377 16.9424 12.7333 16.6796 12.7333C16.4167 12.7333 16.1646 12.8377 15.9788 13.0236C15.7929 13.2094 15.6885 13.4615 15.6885 13.7244Z" fill="white" fill-opacity="0.85"/>
<path d="M20.644 9.75991V19.671C20.644 19.9338 20.7485 20.1859 20.9343 20.3718C21.1202 20.5577 21.3723 20.6621 21.6352 20.6621C21.898 20.6621 22.1501 20.5577 22.336 20.3718C22.5218 20.1859 22.6263 19.9338 22.6263 19.671V9.75991C22.6263 9.49705 22.5218 9.24496 22.336 9.05909C22.1501 8.87322 21.898 8.7688 21.6352 8.7688C21.3723 8.7688 21.1202 8.87322 20.9343 9.05909C20.7485 9.24496 20.644 9.49705 20.644 9.75991Z" fill="white" fill-opacity="0.85"/>
<path d="M6.76824 9.75984C7.03108 9.75978 7.28313 9.65533 7.46895 9.46945L11.0231 5.91533C11.212 5.73537 11.4629 5.63499 11.7238 5.63499C11.9847 5.63499 12.2356 5.73537 12.4245 5.91533L14.5772 8.06802C15.1348 8.62543 15.8909 8.93857 16.6793 8.93857C17.4677 8.93857 18.2239 8.62543 18.7815 8.06802L24.3178 2.53169C24.4983 2.34477 24.5982 2.09441 24.596 1.83455C24.5937 1.57468 24.4895 1.3261 24.3057 1.14234C24.1219 0.95858 23.8734 0.854346 23.6135 0.852088C23.3536 0.84983 23.1033 0.949728 22.9164 1.13027L17.38 6.6656C17.1942 6.85141 16.9421 6.95579 16.6793 6.95579C16.4165 6.95579 16.1645 6.85141 15.9786 6.6656L13.8259 4.51391C13.2683 3.9565 12.5122 3.64336 11.7238 3.64336C10.9354 3.64336 10.1792 3.9565 9.62164 4.51391L6.06753 8.06802C5.92896 8.20663 5.8346 8.38321 5.79638 8.57544C5.75815 8.76766 5.77778 8.96691 5.85278 9.14798C5.92777 9.32906 6.05477 9.48383 6.21772 9.59274C6.38067 9.70165 6.57225 9.7598 6.76824 9.75984Z" fill="white" fill-opacity="0.85"/>
</g>
<defs>
<clipPath id="clip0_2025_355">
<rect width="23.7866" height="23.7866" fill="white" transform="translate(0.821777 0.839966)"/>
</clipPath>
</defs>
</svg>
