<svg width="25" height="25" viewBox="0 0 25 25" fill="none" xmlns="http://www.w3.org/2000/svg">
<g clip-path="url(#clip0_2025_724)">
<path d="M3.7951 6.29104C3.7951 5.4704 4.46112 4.80438 5.28176 4.80438C6.1024 4.80438 6.76842 5.4704 6.76842 6.29104C6.76842 7.11168 6.1024 7.7777 5.28176 7.7777C4.46112 7.7777 3.7951 7.11168 3.7951 6.29104ZM9.24619 7.7777C10.0668 7.7777 10.7329 7.11168 10.7329 6.29104C10.7329 5.4704 10.0668 4.80438 9.24619 4.80438C8.42556 4.80438 7.75953 5.4704 7.75953 6.29104C7.75953 7.11168 8.42556 7.7777 9.24619 7.7777ZM24.6084 6.78659V18.6799C24.6084 21.4124 22.3853 23.6354 19.6528 23.6354H5.77732C3.04483 23.6354 0.821777 21.4124 0.821777 18.6799V6.78659C0.821777 4.05411 3.04483 1.83105 5.77732 1.83105H19.6528C22.3853 1.83105 24.6084 4.05411 24.6084 6.78659ZM2.80399 6.78659V8.76881H22.6261V6.78659C22.6261 5.1473 21.2921 3.81327 19.6528 3.81327H5.77732C4.13802 3.81327 2.80399 5.1473 2.80399 6.78659ZM22.6261 18.6799V10.751H2.80399V18.6799C2.80399 20.3192 4.13802 21.6532 5.77732 21.6532H19.6528C21.2921 21.6532 22.6261 20.3192 22.6261 18.6799ZM10.938 13.9295C11.3255 13.542 11.3255 12.9156 10.938 12.5281C10.5505 12.1406 9.92411 12.1406 9.53659 12.5281L7.37498 14.6897C6.51074 15.5539 6.51074 16.9593 7.39381 17.8414L9.55542 19.894C9.95087 20.2716 10.5792 20.2557 10.9559 19.8583C11.3335 19.4619 11.3166 18.8345 10.9202 18.4579L8.7774 16.4221C8.68622 16.331 8.68622 16.1823 8.7774 16.0911L10.939 13.9295H10.938ZM15.8936 12.5281C15.506 12.1406 14.8796 12.1406 14.4921 12.5281C14.1046 12.9156 14.1046 13.542 14.4921 13.9295L16.6537 16.0911C16.7449 16.1823 16.7449 16.331 16.6646 16.4112L14.5248 18.4856C14.1324 18.8662 14.1224 19.4946 14.504 19.8871C14.8856 20.2805 15.513 20.2894 15.9054 19.9079L18.0561 17.8226C18.9204 16.9583 18.9204 15.5529 18.0561 14.6887L15.8945 12.5271L15.8936 12.5281Z" fill="white" fill-opacity="0.85"/>
</g>
<defs>
<clipPath id="clip0_2025_724">
<rect width="23.7866" height="23.7866" fill="white" transform="translate(0.821777 0.839966)"/>
</clipPath>
</defs>
</svg>
