<svg width="25" height="25" viewBox="0 0 25 25" fill="none" xmlns="http://www.w3.org/2000/svg">
<g clip-path="url(#clip0_2025_731)">
<path d="M23.0606 17.6888C23.6077 17.6888 24.0517 17.2448 24.0517 16.6977C24.0517 16.1506 23.6077 15.7066 23.0606 15.7066H22.1052L22.2102 14.8334C22.2757 14.2903 21.8881 13.7967 21.344 13.7313C20.8039 13.6599 20.3073 14.0534 20.2419 14.5975L20.1091 15.7066H17.002L17.107 14.8334C17.1724 14.2903 16.7849 13.7967 16.2408 13.7313C15.6997 13.6599 15.2041 14.0534 15.1387 14.5975L15.0059 15.7066H13.6451C13.098 15.7066 12.654 16.1506 12.654 16.6977C12.654 17.2448 13.098 17.6888 13.6451 17.6888H14.768L14.4112 20.6621H13.1505C12.6034 20.6621 12.1594 21.1061 12.1594 21.6532C12.1594 22.2003 12.6034 22.6443 13.1505 22.6443H14.1734L14.0683 23.5175C14.0029 24.0606 14.328 24.6424 15.0535 24.6265C15.548 24.6265 15.9752 24.2569 16.0356 23.7534L16.1684 22.6443H19.2756L19.1705 23.5175C19.1051 24.0606 19.4887 24.6325 20.1557 24.6265C20.6502 24.6265 21.0774 24.2569 21.1379 23.7534L21.2707 22.6443H22.5641C23.1112 22.6443 23.5552 22.2003 23.5552 21.6532C23.5552 21.1061 23.1112 20.6621 22.5641 20.6621H21.5085L21.8653 17.6888H23.0586H23.0606ZM19.5134 20.6621H16.4063L16.7631 17.6888H19.8702L19.5134 20.6621ZM11.1673 15.7066V17.6888C11.1673 18.2359 10.7233 18.6799 10.1762 18.6799C9.62912 18.6799 9.18511 18.2359 9.18511 17.6888V15.7066C9.18511 15.1595 9.62912 14.7155 10.1762 14.7155C10.7233 14.7155 11.1673 15.1595 11.1673 15.7066ZM9.18511 22.6443H5.22067C3.58138 22.6443 2.24735 21.3103 2.24735 19.671V13.7244C2.24735 12.0851 3.58138 10.751 5.22067 10.751H15.1318C16.0396 10.751 16.885 11.1574 17.4529 11.866C17.7949 12.2932 18.4193 12.3606 18.8464 12.0197C19.2736 11.6777 19.342 11.0533 19 10.6262C18.4886 9.98789 17.8395 9.50324 17.114 9.18707V7.77772C17.114 3.95204 14.0019 0.839966 10.1762 0.839966C6.35054 0.839966 3.23846 3.95204 3.23846 7.77772V9.18906C1.49114 9.95617 0.265137 11.6975 0.265137 13.7244V19.671C0.265137 22.4035 2.48819 24.6265 5.22067 24.6265H9.18511C9.7322 24.6265 10.1762 24.1825 10.1762 23.6354C10.1762 23.0883 9.7322 22.6443 9.18511 22.6443ZM5.22067 7.77772C5.22067 5.04524 7.44373 2.82218 10.1762 2.82218C12.9087 2.82218 15.1318 5.04524 15.1318 7.77772V8.76883H5.22067V7.77772Z" fill="white" fill-opacity="0.85"/>
</g>
<defs>
<clipPath id="clip0_2025_731">
<rect width="23.7866" height="23.7866" fill="white" transform="translate(0.265137 0.839966)"/>
</clipPath>
</defs>
</svg>
